/* XPM */
static char * crosshair_blue_full_xpm[] = {
"32 32 4 1",
" 	c None",
".	c #0094FF",
"+	c #FFA500",
"@	c #FFFFFF",
"                                ",
"            ....                ",
"          ........              ",
"         ..........             ",
"        ............            ",
"       ......   .....           ",
"       ....       ...           ",
"      .....        ..           ",
"      ....                      ",
"      ....                      ",
"     .....            ++        ",
"     ....      @      + +       ",
"     ....             + +       ",
"     ....             + +       ",
"     ....             +  +      ",
"     ....  @   @   @  +  +      ",
"     ....             +  +      ",
"     ....             +  +      ",
"      ...             +  +      ",
"      ...      @      +  +      ",
"      ...             +  +      ",
"       ..            +   +      ",
"                     +  +       ",
"                     +  +       ",
"          ++        +   +       ",
"          + +       +  +        ",
"          +  ++   ++   +        ",
"           +   +++    +         ",
"            +        +          ",
"             ++    ++           ",
"               ++++             ",
"                                "};
