/* XPM */
static char * crosshair_orange_full_xpm[] = {
"32 32 6 1",
" 	c None",
".	c #000000",
"+	c #0094FF",
"@	c #FF7700",
"#	c #000000",
"$	c #FFFFFF",
"                                ",
"            ++++                ",
"          ++    ++              ",
"         +        +             ",
"        +    +++   +            ",
"       +   ++   ++  +           ",
"       +  +       + +           ",
"      +   +        ++           ",
"      +  +                      ",
"      +  +                      ",
"     +   +            @@        ",
"     +  +      $      @@@       ",
"     +  +             @@@       ",
"     +  +             @@@       ",
"     +  +             @@@@      ",
"     +  +  $   $   $  @@@@      ",
"     +  +             @@@@      ",
"     +  +             @@@@      ",
"      + +             @@@@      ",
"      + +      $      @@@@      ",
"      + +             @@@@      ",
"       ++            @@@@@      ",
"                     @@@@       ",
"                     @@@@       ",
"          @@        @@@@@       ",
"          @@@       @@@@        ",
"          @@@@@   @@@@@@        ",
"           @@@@@@@@@@@@         ",
"            @@@@@@@@@@          ",
"             @@@@@@@@           ",
"               @@@@             ",
"                                "};
