/* XPM */
static char *result[] = {
/* columns rows colors chars-per-pixel */
"128 128 38 1 ",
"  c #1C1C1B",
". c #201F1F",
"X c #20201F",
"o c #252424",
"O c #282727",
"+ c #282827",
"@ c #2D2C2B",
"# c #302F2E",
"$ c #30302F",
"% c #343433",
"& c #383736",
"* c #393837",
"= c #3C3C3B",
"- c #403F3E",
"; c #40403F",
": c #444443",
"> c #484746",
", c #494847",
"< c #4C4C4A",
"1 c #504F4D",
"2 c #51514E",
"3 c #555452",
"4 c #585754",
"5 c #5A5956",
"6 c #5D5C5A",
"7 c #605F5C",
"8 c #62615D",
"9 c #68655E",
"0 c #646362",
"q c #686763",
"w c #6A6966",
"e c #6C6B69",
"r c #706D67",
"t c #716E6A",
"y c #72716D",
"u c #747372",
"i c #797773",
"p c #787876",
/* pixels */
"*=;=%:,,,2<;&&&*<12<221<<><3311:<<=%=:,,33<,:;;313>33::*=:,;%;;6=%*%::::$@@Oo<><228666451*08676633226663<3<><3<:@*><<44<344651:*",
"%%==:=%%&%&&$;,*%%;,<<<<,<,<,::=*;=>;,<<,,<<<:%,<==:<;%*=36<=::6;=;=%=:=$$$oO:<<450w08221=34466346<2,263==;:3<:%:,3:,13<<1664<8:",
":%%::=%*%$%*;;;;=;%%:;:>,:;;:*;>>>><:,<,<;;<<,*:<<<<<=%=$>36<::3%$=;*=&*@%=O=3<3<5806654<;8325w5664<<<63=:,;,<*$,3664<<:336334q:",
"4:*===:%$%&;;;--;;=>;$==::;*;=*:<2<,;;<<,:,3<:*,3<><<>&&%3,33;13*@%*=<<=*:=@>663543456683:5348870e432<4;=<<<:%=:,66633<43663:480",
"6<**=*:%#$&&%%$%*===*====;>&;=;;==;:=;;;<:::<:%=:<<,<<;;$1333;><*@$$=<<;;:*$3366446542332<544568ew633,:=*::3$$;<6003<460003-3655",
":-=%=%@Oo$++$%%%+%%*==:=;;:;>;:&$**$%**;;;::::**:13><<:&O3<1:<=>$@@*:=<*=:$O:336543521252>2655780w073>=@=:<=&><23663350064<30002",
":,%@%@@=25586334,*%*%*=:;=;:;=@@300;%%%*=,<:::%;;:,><,;*&<:<33@%o=$**=&;;*@@<0335232,2<1<158756806062,:*:::&*22<4842<6056634qe63",
":%$@%+%w53<33313242,:*@%%&*$@$,660663%%==,:,<:*=:;:;**;%*%:$;==&==;::=%::=@=6663344221<142<688026331,;*%=:;&;<3<3423<46006330y03",
"*%%$%X,422123123357664<:;&@=2q76060600<=%*=<>:*::::;;;;;:;:;::::;:-1:,:;**@=3660611<>><<<<3500:%%:<1,$$*;>;=><3>33--><0064354u04",
"%%%%X#42222412466873600660787800000006e0*$=;===:<<:;::>=;;:;=&-=&-;::<,%==@=<<66531:><<<>>070:**%%*$%;::,:$=<<<34>&&>370464468::",
"%%@O%1411;;234868843607766667780000300632:*:=::::<:>==$$*;;$@@@@$%==::=*==O=<:33333<>-<>>>60:*-===;%=,:,>:$%;3>33>=-<477665204$&",
"$ooO;41<2425568553322270066688780003332222;2;>>:::;;%*o$%%$.$::%O==&%&==;=$=3:,;>1<3::,,,,6<%%=:*===;:2>>:%%:3361:*;16661480w:%&",
"Oo=35,;457597535622<<2488000985431,12366;*;<=%$$%*$OO+,1:@oO=;0>-$@%$%&*;=@;63<=:::33:,23:*@$$&*%%%=;;=>;::%=3<31;:13543<368y=*%",
"@%,22>142775846853222<28q9q803421::<4406;=;:$*<%%@$@$$<6*Oo$:;360::%@%@%=%*%<e3:-:144333%@+OO##O$@$$$%$%=:><**,63,<4405612388%$%",
"O=<2<5438722444833<2227e68q083<<::1<006<;>:%%<666606&>6<@+.:;=<60<3::<=*=*=@*366:-:255<=++OO$&%&*%+@%$*@$=<,;=&3<<,<656665406%%$",
"@+<434<21;2175995355460q687842,::<2<33:<;<*@37433606<>03++.*<<,66<<23333=@*$$=:;<<305:#$@o.%-<<2<2;:3>2@@$::;*@,,232567q0676<@%$",
";X;581,14,1;4548066646646626<3<<,,,:,;=>,=$%50336306<:6:=oo.%<:337<<4653%*$**%$@*%==OO$@@O-:>>>49;795;5;&;*;;;;%@<4606606631<&$%",
"%$$;,,21112;248989866433331606002,>>>>:>>%$=30753363<:<<=@Oo%3<3<253654606%$=*%$***%$$@@o&62::<2;;49;;442;-*;;;=@,566666663402%*",
"-&$$$%,4231144957836444333360603>:32%=,<<$%33885336<:;3<>%@O$><3<:44466566;@$%%%$$$$Oooo=626261<795;;94;;43;$=;;%%460635641666%&",
";;&&%+<442,<;45<5633335666601:<2<64:::<<:@:356836333<:;<<;@@o=<<:*>23583600:O$$%*%$.$oO$6636821<47;;459;2221&;;;=%%50066614366==",
"--**&$$=@&$$$$%==;,<3500663<33<33<<::,,>:%4344543<>3<:3<6>@@o=<3::>3223,30<3%@$@@=%%<3<006221333783155;5245r;*;=::*=586433666=$%",
"&&$%&$$*$;**;=%=***,>>4236<:1<<<32>:2,,:@$;,367433>3<:<<63OOo$36<3<<<>246663:$o@%-*$<66086:4557874325;5554593%;;::%+24363604=&&%",
"$XX@$$&*$**=&=;;,::%**%:<:336<<<<>;-<,>%@,:=234333:>:<:<<==@o$36<<602<430003<3*@%==@%33603:65558144;;5;4;7959;;*::=@=<<e66e3$$&%",
"X+#$X@+@@@@@+$;;::::::=;=:<<<::,;:><::;$*2=::<6633>33<<<33%@o$33660e6>2400<03<<=$==%@>605<,q54505795;55597959;**:==*%%%>=%*$*%%@",
";<;;%@-;;%;,;;$;,;,;:,;;:;;;,;::>:;>,3=+:2>:,26333<03<<><<$%o%336e06e30063663<33=*=*%%1336:077548732<58999842;**:,::*=*%$$&===O@",
"71;<1599565765-=;;:;;=:;::=:<;;::>:,<<%;,2:=<<603<36633>3=$@@@0663330>><3<333<>6:$%-@@3<36:6r05q85335589988442=*:2:>:;==:=;=:@$3",
"14822899655778;;::;;&:<::::;*;:;:3,,<:%:,2,,226633630333:$%*O%336<663,;:<<<<3<33<*$%%$=3<1-3r777733435796221<45$&=;=;::;;===$@>3",
"12999944655664,*;=:>=&**%$%$$%%%*,2,<>=,,24<2343<363363=**%%o:30630,3<:,::33<36<>:$%&&%6;:,00577843357555<:<5582%**%==>>:=;=O;6<",
"47998445885668>&=;;:%=,*::2;*$o++*;<;:*;,34:<<36360633:****@@366666<<<;:::66<3<<=:-@=&%30e08e7575442655455358988,@@%:*::=&:@@266",
"828944496668q8>&;;=;$:<3=<63;==:$@$=<<=*<242>3463633<3%%**%@:66660<33::=>366<<:=*:=*$*%%>666e85778888742113687553:,***::&%$+=e66",
"5588499956qw64>&=:;%*><<,<3<:;<603;*:<===36<<660363313*%**@O666640:3<,<:><::33;*=>:-$;;@:06368579rrrr532<346654<3<%%-**-%%o&6e66",
"58549yitwwu0433=-;:=*;>>,<31;;33232*:,:=%:3233066<1633%%==$*00660063>,,,>:3;333,;->:$*=@-e648y8er9877324245622:<5:%**%-:$O*40w03",
"888667eeqeew055;>=<=%;:>>332<,26427;==;;%%,323703<330:$%;;O:6<6<60e3;>-:<<332<>:::36*::%$;86066er8667541336033<222>=;,,%@$297895",
"8987000e060e03<=<:>=%%:2<262224752w3=,::%@<322880<<;6<%=;%O<333330e3>-*>633<<<:,12<>:>=*%-8760ee935221,256602<52<<:;==*o%7779rw9",
"779w0e64523>22=;:;:;%::3,54,,24552w<=::=:@=42<253:<<6==;;;@33633606<337666>:-;:3341:--:=@%00070053,,<,2750662,2,,>;=%*@;73758r54",
"7eyeu62<242324;;;;:=%><<:54222257474%*:,:%=3>>323<<><;$:=%O033;:36*3666666:<<363321:;-:;-$>680e06<,:247,:42<::::>=;==%X:66555751",
"07ew032:=46255*%:::%$<<<>63<22565555=:;,:*%3<,5363<<6;=::%O>03*;%<,366553333<<632<,:<:;::$&6e0006213592;<><:::>:>;***@@<58667998",
"30p6633<645745*;<:<$*:<::32<24677433===:;%@<2<2233333$:>:@%6e>::11113664,<43<<<:>,<1<:-;-+,y6000622687242,<:;:,12,:;=o:237689985",
"2ue4623<66566<=,<2<**=*<>6>324677555*=;,,;%=3<4,<<<0==::;O<<333311<>:334544<,<,;<,>,>>::;$6y00464,2977<2:>,,,:>42<=;%@3556099757",
"2p0433<443<6;=;<<2:@*%;><3<33886557r:=,,;:=$3<4>*=;;$=>:@*3666661>=:<343353,,1,::<:1<;,:*+88666<,249242;,<<>:<<>,:**@$538qqq8743",
"6u03<245446343=<<<>;***:232338956883:%*:;;=%=:<4>;<3:<>:$3666366<=<,<<3<33<<<<<,,124<,2:=@6646<;>5363<><,,,,;2,<,2,*o$580000663,",
"0q76338344:<3<;<><:%*;;;33234884384<6;O$=:;%%;26336;><>:$666<=<3,:,<,2<,<,<<:,:,156,2,,;%$64<>,:253,2<<3<<<=<,:2,<:*$38w0868633<",
"e0336563<>:,>=:322<%;>>:52335884357,44$;$:=*$;4633>;<<><=>3<3<><<,,,>::,,;;;:<<385<::;;==%434<>,605<<,<::;*:4;=:<<;*@300w66642,,",
"2e2477<3<:,:::,><1>%*>,:52525585323<,4,w==;=**246<*><:<<>;*=:6663,;%%*=;,,::1,3654<,54<,=$41622656<22<:,==<2>=:><<;;$*e88842<,;<",
"8e30002;<,:=*=1<<2<*=:><423559644538,48w6%=:%%<3;=:<<131<3>;;*=>,,**;;,,3361,:145325w85<*$2132664<,1,,::=1<::=1>,::=%=98482<:e36",
"632562<,<:*=%;,<<22%=<<33:3388547638,3686:*==>:=:<>,3<<<<<,,<<<==;==,<<<3313<333<34382;:,=>243463,<,;:;,<63<=<31:;*%%@253;:4ew87",
"4222<<:=<;====,=*><;%,<53<25995575<583760:&::;:,<<,::<;;;:,>:<:<,:,<<,1:3><2<4<33<23622<,>=<<656,<,:;:::<<2><,>;=:=*$+25;23w9774",
"2531,;=:;==*;:;:;<2;@,>62,369724447066344*$%;:,,::===@$*%%;:::<;;=:23,,;:>><34>54462512<,<$:5544:<2;%%:1;<3>:=:=;==;=*42<:59w753",
";4211>;-;-%;;>;::<3:%,,6131778553:175642<%@$=;=*@%@@=<6663=$%%%&$*****;===<<<<303642,332=:%$>=<;@%:;=*::<,<:,;;=;==;*@<<<2q57865",
":33<,>>**%*-;=%;:31>%:<6<1285733::1438113=@%%%@$;360e0063<330:3:<34<<33<:>;;&<<63222:<><,=%$%%==$*%%%=:<<,;=*@%*==;=*$$2,7736236",
",1,**%**=*:>=;;>24<<$:<4<1455444:-,<<6113$@$%+O20eee006<::,26063<1<23<>::>>:><<352<,<;>;:=:,=%;*=;:;;;;:*$@+*2;@%*==:*$,<5223333",
"<1%*;;-;;=-;;:=<<<<<%&34147q55534,<,,<:,>@$@o+:33e0e0331<,<36000>:2<<<<:;<<=:<<<3<5<<><5<55:==:=;=;==%$@@::3q63=+@%**=*@72,1266,",
"*;&*;,-;>;;-:;:::<3<*=63>47866<>;:2;=><>=$+O+::336ee06333=;<34062*<3><,,:;::<33323422238>533<<<::;=$+$:,%53344675*+$%*=$=:,2>52%",
"*;=;,;-;:;;-==*;:<<:*;3<1447011<:>:=*;:;oOo ,::2360e003<,&;:23003;;1<<<<<<1>:3<65324,2,,2<4223>:;:*@:3<<2262366566:=+**%@@:,$%%$",
";;&;-*$;;=:;;;;::33>==63<326631<:>:;=;-@o. &<:><<6000663<,::<3666;:<3333<3<<;16,23222,,,>=3<2:=<;=@;6<:,,:<366546866=$$%%=**%***",
"&$+@$O@$%-;<:><><3,=;$3313584<11>::=:%oOo o:>><,<3666366232<,4064>666<3<,;:::633,,22;;;@$%;:<=<<,=$465,:;::<4646666603=$$%*%*%%*",
"+=&;324;@+===;<,<<,,>=:>>360631<><>%$++o. %<<>:<33<30063333337e003363<3=****=:3>,,;@$@+@<$%=:=,>:%=3143<<>>:13366060755;+$$$%%$@",
"25440wrq1-+%%-:,,::,>;@><600631<23=oo++X +<<::>>33<30603,,<<400466>33,*==;*%%=><,$$*251566**;13>;+;<663,><>>1<44068677e0:,=%$$3%",
"425458w8q5*+$==-;>:;>=*><36036634:O+++o O:>,>;:<<<3<0e033>:>38636<<63<;%;:%O$%%;;@257w98406**=:;*$;:<02,<3323<34635632809qt866e0",
"24443658872%O+@%%=;::=$>33333666<$$@@o o&:::<>:<<<<3e00663<<486366<633====Oo%===$%5355796662===$@%;;:332<436333<36333<78758860e2",
"25444526w832>O$O@$%;:;@:334366e,$@$@o o&;,>%,>::<<33006343,<667566<33<;**%@%=*=*+*2353566043$$*%*+;>*;23636033<143364<5w94675607",
"59845824363433,OO+$%**$$*3666e,@@OX X%=<::>,<>:=><336006633<3306666<63,:@%$%*%;$+;2556636064:@%*%+:1:;:13606063634<64,4q07776606",
"85w8486536373233,;$@@=*$@=6303&$$X@*<=*>:*=:>>,><36630060633,366033<3=:;%;*%$%$O ;267q00762,4=@%=*@33==,360000663275,2,ew8454006",
"259748663<<53<231,,=%%=*%@:%*&@+OX><<;;:<,=;>>,<<<3366060663,<34===%==%;*=;**@.%@:36qw07061<3,+%*=%:3<==<00600e00662,,25877767w0",
"977550076<2763333<3==@$===%=**$$O$3333><,2<32<<1,<<23e00064<><4::;$::>==>==%$o$**<30e006063<<3*%;=$%<<3:36600000006<><:<0006666e",
"e554467885365533<<603:%%**==*=%%@:03>244633,342<<3<3600e06<;>>:=:<;:>:::;*$o@;**%:300006333<<3<%;:$%<<36><360000e00333<<0e00000e",
"r9535660e84447643333063%@%==*==%@*;3234666033641<36060ee06<<<==:<:;::>*=*%%%,;%=>360063<66<:<6<%*=*@>3663><30eee0003333:3e00000e",
"9955665666543q763333606<=$*===:;%$$2604400003660600000eee04<;=;<<>>:%@+%%%,;==%;><<60<<<303:6e3**:%@:>3363:<36e00006633<6e000000",
"57945657683806604663666<3:*==::==*%&-3660066331660667000066;%:32,:=$o%>,42:%+@=><3<<0<3<>33<6e<**=%%;<633:>:6660e0036363<6666066",
"455757666658e666400066636>$*======*@*8000eq35<:76366066eee3=><<,:*%,%%:,<2>%@%=;<3633333><63003%*;*%;:<<:<<><36000006033<6666060",
"55506656875907446800060033*@*%===&%$$6e8wew53<167706566eu0*><<::$;>6::><42,:;==;:<<360333033303*::**=:::::3:<<>366660033:3u06606",
"876766578638606566636363<36@@$==:=*&+28:0767><58664460ee<:;,<:;$&243:<>31<<,,;*:<:<333660<<366=:::==:>;=::<:>633<66066633<e00006",
"776057675886868734<<<34<2663==$**=**@@*:;<898428088559i2*;2<=$$=*133<<3331,:33<,<<<3<63<<3300:%;<3>$o**;:::::3633>6666333<eee006",
"75664576678q655334>:;23<26634e=$%=&$@+O+@@%$;88iqww8622;*;<=$=:::<3><133<,<,26663333363<><0e<;=<<3=@@@**=%:;:333<=<33333<<3eeee0",
"77e0975778807563362;>>,,,336336%%$@O.o+oX@@+@&;806eq9;*;:,,:=:,::<>60363,2<3260e063666363006===<3<:%@@*%%%<3<>><<:*3663<3<30eee0",
"06e09w87wyew66854842<>><,:;<36:$@ooo+$*@+X@@$@@&$$=,%*;;><<*;:343<33603<22<3330060666666006@@=<<::;:%@%%%*33:;<>>:::3363333<e0ee",
"06668890ee346e0066<2<<2<;,<<22&@o.@&&=;1=<;*O@%%%%@+@*;-,<<%:<2233<60633336663006063663<0<%@%;==;;==%$%%%O=*%:<><<:><><<6333e00e",
"0ee67080y4>66eue04636442<,<3<$@$oo&:&&$3493<*@$@%&@++$%;><,==<:333,36031<360060e0666006<<=$%%*%@%=;;:**%*;::%:>><:<<33:<333<6e00",
"007e006q3<<334u06600666333<&@$$$ o*&@%=13;2783%O+@+O%$$%:>,=%*,<,,:30333336e060e0006066%@$=&@o$$@$;;:*;=:><3:%=::=><<><<><3<6000",
"00weqyq,,<3<2442060e006636&$@&$@O$=;=;>64447998<%+@%32$*$==%==%2:<36636336000006006006<$=&=%o*=:*$$=;=:;=;3<3;;%&><3::=:<<::<660",
"60eeee62<><23535060066666=$%%&&+=>><<,16666066303<=495444%$;::$*:<,6636660660606300eu6;$*%@o%;==:%%%=:>:::><<3<:%-:>:*=:<3::;336",
"<7q20u6<<<223536666000604$&=%=$o;4334366063034332355785795;$==;=*&;:36633000000600eee=$$%@@><<:<<:3:@%-=;===33<3>:&::*%=<;=><;3<",
"*=;;><0422<3<3336636600e6%&==&O@0666666336630766464434444454$%:::;&*=$*<300660ee633><%$$%@<63<:<3>3>=@$%%=%%-<<<<:>==&=*&&:;<:>=",
"::,;,<05363222233466660e:%=&%Oo:36360333666646765448754799993%$**;;:=$*%;<<e06e63%%%*=;*@*6066663<<3:=&$OO$=%-<<3<<<***%*=;:<3<:",
":,<<<:03604653<13336666;>==&%o:,:,6363662366444566658878838995%=$$==*%%;;;*::=;%%=;:;:;*$:06030333<3>-===**&;=;><<3<<3%%=;=;:<3>",
">::1<:6656060333366670q3%;=%X$:>*%336006336543300q840899990860986;;$$@@%:<<:::;*:><>>::$3:33630e33<>>::-=:=&;<><<:<<<<3%$=;=:=::",
":::<>=256060624433366682%=*$o@>:;;<63065533637688w858098997655856333>>%%=<;:<<;=33<:::=%63333060033<>><>:::-;;<>;:><<;<>%=*;==*>",
"*=*=;::4360066633<23<44%&&=*Oo*,,<3336633<22550078476858897545543<36600<*==::::><<<>>=$%333366600<36663<=--=*%*;:;::>;::*O$%*&&=",
"=;;;=;,323603676353163-$*::=%++*44496876622245357745535466313336360606633>@=:>::3<:<;%o:63<333666>:33<63:>==:&*==>=-==::*$@@*@&&",
"*;=%=;:3642766600061<=-::<:%%@%%*=478088524522<1742333331<<336600066><3333>;=:>::::%$@:066333006633<<3363>:>>::=&:<:-:<6>*@@*%&@",
"*==$*:;<4w325470qe7:::>:3,*%@*%*=#*280995222212<22572385113660066<<:===>3<<3=:>::;%@=600e666603606663>333363<>>=&=$-:<>63:=@$@%@",
"**=%*;*00631<553>>=;;;:::%*-***:**-*=6,5,,21:;<2<<352597316666<<>:=$=;::><><%:=>:@@300uue006303666333<><33363<>:=$$--:<<3<==%@@&",
"@$*%%**6e660636,=::,,>:%%*<23**-;<<,;$;7*,,,%:<451176806363<1333<<=%:=>3:;=*=:*::@<06eu0p00e063<3306363336663<>:--==>>:<::==&@@@",
"@*=%$=*006600<;*:::>::%+>3><4*%&;1>>,;=-$;;::460065766833136663<<<>==;<::*$*%%%%%;e6000epe00333<<3006636<<<63:::;=:::>;:>:<<==@O",
"$$@$+=;6660064;:::=*%%3,544:2:,*-<;,,,;<;-$$$6607545423346333<<<<33<=;>;%@%*%=%$O<e06000u0066333<0666006303363<<::><<<<>>>6:<--&",
"$*%%%;;3306=+%=,,**=&*,40706,:;=#$;,<<<;,,;;=*466413<5363631>:<<3<:<<;==%%=**=$.*e63336000636633<3360600606<<333<>33<3:-:<6::=:&",
";;,;=**622;=*;:,=*=%$<125835<:,,<<=*::>><>:<<=%;>><336636331::>>::<:::::*=*=$=@.<3><:<3660633333<<33336606333<663<33<<3:;<3:;>;=",
",<3,==**=;=**===;%=%,82<25883<22333:*$=:::<<<<:=*<3333<33311::>;:3<<<>3<==:;%%o;63<<333<600066666363>>3000663<<<<<<<3<:::%@%=:==",
">=:::,**;;=;$@$$%%%%;62<,<486443<<6<<::%*:<3>:==$=*<<3<<<<<<<=<<<6<<33<<::>$%O@>3<<3<3<<300000000663<:33600066<=:><<:<3<<::3::::",
":;;3::;=;=$+@*;=$*==$=232123665<<<33<>:*:*=<3<=<3;===<:=>><<1<>1<<<3<<<<:<>==@%33::3<:<<:600ee06003663333630003:=>33<<<::<:<:%::",
"2;>,:,>:;$+=2,71=$%%@@933<,,47w063<36<<<:==:<::03:<<:===><<><<>3<<:<>><>>::=*O=3<>===:><0000ee000606633<33600636<:333<<33<<3<*%=",
",;;::<;*$X%;32254%@$%+;33,6<360663<<33>:<>;:;;:<<6<<::><<><:;><<:<<>:=:>::*==O;66<:;=:<<00000ee000066333333060036<<33<3336<<<%@;",
";;=;<<;@%=;,,,,4e;@$*$$8006<<3666663<633<:><;=;<<<>3<3<<;=<<:::<3<<<===::%;%$O=33<>==;<000003ee0000633666336<633333::33>3<33>:;*",
"*:<;;:=+;2,1132288=@%$@*qy6432<6366>:<3333<:;;*:<:<<3<<>;=<-->>><<>>=*%%*==%$O;0603><303300630000e000006636<>:33633<:<<3<<33<:*=",
"=::==;@+<63645426e1$@@$$;y07333<666<:>33333<:<>=<<3<<::*==::>=<<::::=%%%:;=$$=30003<6<<06666606000e0600033<<<:><3363<<:<3<333>:%",
";;:*:%+*06867577663$O%&%$5e06662333663<331<==:3<>:<<=%$$$%%::><:%==%%%%%==@=$$66006363:3600063000000660636<:::<<306<363:33>:33<3",
"*;=*%@<e99888975646>@$*%*%%60643<36e6333633:::;&:<;:$%==@%%====&%%%%%%%%%%;:%$633600<<:<<60636600000000060<:<::=<06<333<63<=<36<",
"=,:=*o36272693246433=$$&;=%*e,63<333306:<:<<<::;:>:%O<06<3=OOOOO@@@@.@@%@===@@63<33e3<<<=6300666600e0e0060<::<>=336606>003>:<333",
";::*$;64563375765543:$@*==*%=<6663330e66<<3<3:><<<<@=00363033:;=<:63<3%@@==%$O33333006<<<3666000060000000663>>::>33600<0033<3<3=",
";>;%%66463345876<8423;@%==;=%=00333336063;3<*;>3<<%o<660066333360063336:@%%$$@:633300063<30060306666000066663333<>336636006633:=",
"><:@=34475555756<53333=$=*=*;=$30033<3603:;3;><<>=@6333366633333636663303$$%@%%<663600e0660e63%%666060006666663<<<<<<:33600666<=",
":2;$<666788659785222333$**=;:=$,3006<3663:3;;;<;=@=66663666003666366606606%%=;=%;<3033003==*%*=*%:e060000660ee30333<<3333660066=",
";,;@386686865775344806q3;%&->-=%3e663<<3633*=:<:#-660884366063636633333603*%%;*==%%<;=<>=%=:::==%%%%060660q89995066635433366676%",
";:%$4q686886897544000660e>&:>:-*$6033<<<600;-%*$#380e0886666666336663330e3@@===::;**@=:*=::;:<:=-:%$3646677895590666666633<3343*",
";;@:0wwww6ww9eq86e0e0q5666*=:==&%=6366<6666=:-=O>780006006066066366666366:%%*=;:=*=:*;:;==:>::=:;:$=%,6000we94770000000653<>>31*",
";;@<6eqwq0ewwqq500007q86w<-&%&--=*=:633663>;;;$@3368wwee00666336336333360:**==;**%%==;::;::>:;::;=:::=**;>;768580000q7066331:4>=",
":**3378880w87977060660085<32%&-<:=$;e063<3-;:%@-11,4880008q766>1<<33<<<<6=*&=-=@:*@$*:::%;=%$*=:,>,,:<;*==%*;48800e60033668682;=",
";$;:237570085754034363624248<&:>:;=&306633<;;%.-;-:->36666866<:<33<<<3<36*%==*@%<<:$OO%$**$$=*==;;*,>:>:>>;=$--&,20%*233543>:*;=",
";*=;<2333566259;3634:<46;<,374-=-::=*60663=;:$$>:-:>=,54,,>,>><<<3<<<3:66%@%%$*>;:<<:;%:<3><>;:==$%*:=1<>:>=;&;-%%==*$;;*$>%->>:",
",%*<32333265442233431<,3,;:,22&&;:3:%:e66=*::%$03>>>:3<;;;-:>:<>:>:;:<<<>@&%%O3<;:<<<<;=<3>3<<<::==*$*:::::>1;;;:==:=$;==&;;=::>",
";$<<3,665532522577754244<51-22:-*-:<=$6e61=:<*@306<>:<**;&=;:;;:>::*-:::>$$$$O>3<<<<3<>:663<<2<3<;:****=;;*;1,;1<>><>:<<::::;;::",
"*$<;326559955757575995549822452:$&:<<=&6p<=1<%3360003:**;&%:=;;;;--;=:-==o@%$.@<<<>><333633<23<:;:;==%%=$;;;;;;1<<<<>><:>:;%:;:=",
":+:;6353427479774444323588<<42<:$$=31<=&:;:<<&>326666:&>>>>=&*=*%;&=:>>::O$%@O:<<><<<3006<61:<;:<<:;==*$;&&;;<;;1<<<;<,::>*%:;;:",
";$:,65534;;;2;425;5;247343,,<1113::<<:=%==:>-@:6:<><,<6=*:<=*$:<0>%&&-===o$@%.&-<;333<333<33:,*<334<:;*%;;;;;31<1<<<>;=%==*=,=><",
";$%*,52:;4;2;47;;54;22121:*-:1:3:::3<<::=:><>:3<142::6e>&*3%*%636&&=*:=@=@$$@o<<:<36:<<<3<36;*::14662:*$#*;=;,<<,,:;&$%$$=%&%%;:",
"*%+$;<3<2444744;9;4422231,,::::;=&:><<:<:>36>-,><>>24e2&%&;>><3<3*::=:-=$$$@@O3>3<36<<:,<;603=<<,1064<,,;*#*;;22<,=%$<5<:>253-&*",
"=**+=32<;42222759;44344761247=-;;&:<:;:<3:11<%-:,<e6861**%;;;:><>=>>:<<:$%$@@@-<<3663<<3<;366646<,34442:<22;41311=%,2443115244$%",
"*=*$*<23242;325;444;34233<445221:-;;:=<><333>=--<6660e>*%%>*=;-<=*:;:><:O$$$.*><3<0636633$36666632364332<3;;22><;%,4>331114483%$"
};
