/* XPM */
static char *result[] = {
/* columns rows colors chars-per-pixel */
"32 32 83 1 ",
"  c #374737",
". c #364C36",
"X c #3A4B3A",
"o c #375537",
"O c #375B37",
"+ c #3B543B",
"@ c #3C5C3C",
"# c #3E633E",
"$ c #3E6B3E",
"% c #3E733E",
"& c #3F7B3F",
"* c #4D4D4D",
"= c #425442",
"- c #425B42",
"; c #4D574D",
": c #4E5A4E",
"> c #545454",
", c #525C52",
"< c #5C5C5C",
"1 c #426442",
"2 c #426B42",
"3 c #4E634E",
"4 c #4B6B4B",
"5 c #447344",
"6 c #447B44",
"7 c #4A734A",
"8 c #4A7B4A",
"9 c #546454",
"0 c #546C54",
"q c #5B655B",
"w c #5B6E5B",
"e c #557355",
"r c #547B54",
"t c #5D745D",
"y c #5D7A5D",
"u c #646464",
"i c #636D63",
"p c #6C6C6C",
"a c #637563",
"s c #637B63",
"d c #6B736B",
"f c #6C7C6C",
"g c #747474",
"h c #747B74",
"j c #7C7C7C",
"k c #458245",
"l c #468B46",
"z c #4A834A",
"x c #4B8B4B",
"c c #479247",
"v c #4A924A",
"b c #499849",
"n c #538153",
"m c #598259",
"M c #638363",
"N c #668866",
"B c #6B826B",
"V c #6D8B6D",
"C c #738473",
"Z c #738B73",
"A c #7D847D",
"S c #7C8A7C",
"D c #7D917D",
"F c #848484",
"G c #848C84",
"H c #8B8B8B",
"J c #849384",
"K c #869A86",
"L c #8C948C",
"P c #939393",
"I c #919B91",
"U c #9B9B9B",
"Y c #96A496",
"T c #9EA39E",
"R c #A3A3A3",
"E c #A6AAA6",
"W c #ABABAB",
"Q c #ADB6AD",
"! c #B3B3B3",
"~ c #B6B9B6",
"^ c #BBBBBB",
"/ c gray77",
"( c gray79",
/* pixels */
"Rjpue66$@q,wk#27jPRUHpu9166#ATWW",
"gHpF4z21LHt6%6#1yP^!THu<t62gT!HH",
"jjju5821TWGslccz2zsW^RHw62#JWPjp",
"sjg08r8LRRTA0klv875CWWj7+2--sgpg",
"2str8y2UUH!Al6x2C8X1tLjq2@11#fdp",
"+17zmUAFPSBl$58RFj-@1fw3q #t15aS",
"$62mhjPjy5#$22ZFjFh. +Og1@i9#12f",
"#@+#ffC###%%8rIHda@5$+GLz7fp>5$#",
"01@+1a#O%c66wHjGMo%vFUY655Pjp>3+",
",pd@@X@%zre>>pfs2%ljRKz5+fHWPp<u",
"H!Fw4+148ZGjuqo#l6fPUM61hHjPTf-q",
"W~UgqCB155DGj+X+%k2pgaz2AjFjf1@g",
"!WPggpZ2215JHA$oo%&,uy2Sgjg#520F",
"^UHup9221A@8y#22$@5$*36gp<2@5$0R",
"RFpp0X1%zFG21@$C64+5#,:,>>#d52:g",
"up<q@@#,l5j#$5HLC7=+1+@9idFPf8>>",
">*0127Znc$5#@tAUL82k8+-@@1RPjeuu",
"<e@@8Q!Nz%.$sGWULSl62d11+WHFpp<u",
"ua-DPE/RNzX#7FHTHF66fh9#PFg*<Hg>",
"<9LPFFU~Ge#43<gjWHszMHd9gu*uHWPj",
"g>dahFHPHi*<pu<>pjB6APj0##pUUR^P",
"Gt66aGHjd;pjjjgp>>dMgjd2oz2J^~T!",
"h5#6kwjp1>FW!FHjgu>pA+225k--#SHH",
"#$$26l65#-MS^!HPFhu> #2wl5741+Gf",
"7wy1@2O%$o#5I~WW!SUg<#gCl5J2@+@1",
"ujUB4-@t&o#+5HUPL5YWH.,d8LPG@2@2",
"<P!Z528Jb6-322CFG@7(Rj<dsFRjPgh#",
"jU~L52yjkuup45tA25GJPF0*<gjjFTgi",
"ujTRV7Bg;ugFp4#1+@zGje20*<ujFw8.",
"#<jPB5U;ajJ8B5-#-6l@a326ttq9y2#+",
"Xu<pFsd5251-=-+$6c10q+#7865#2$oy",
"@pu>pF$@@@.2 @56c8hgg<o-2265@1BI"
};
